<svg width="16" height="30" viewBox="0 0 16 30" fill="none" xmlns="http://www.w3.org/2000/svg">
<rect x="1" y="4" width="14" height="11" fill="#E3AE97"/>
<rect x="7" y="13" width="2" height="1" fill="#1E1E1E"/>
<rect x="7" y="13" width="2" height="1" fill="black" fill-opacity="0.24"/>
<rect x="2" y="15" width="12" height="1" fill="#E3AE97"/>
<rect x="5" y="8" width="4" height="2" transform="rotate(90 5 8)" fill="#1E1E1E"/>
<rect x="11" y="12" width="4" height="2" transform="rotate(-90 11 12)" fill="#1E1E1E"/>
<rect x="3" y="16" width="10" height="10" fill="#3D3F59"/>
<rect x="3" y="26" width="4" height="4" fill="#2A2B5D"/>
<rect x="3" y="26" width="4" height="4" fill="black" fill-opacity="0.2"/>
<rect x="3" y="26" width="4" height="4" fill="black" fill-opacity="0.2"/>
<rect x="9" y="26" width="4" height="4" fill="#2A2B5D"/>
<rect x="9" y="26" width="4" height="4" fill="black" fill-opacity="0.2"/>
<rect x="9" y="26" width="4" height="4" fill="black" fill-opacity="0.2"/>
<rect x="13" y="16" width="2" height="4" fill="#3D3F59"/>
<rect x="13" y="16" width="2" height="4" fill="black" fill-opacity="0.2"/>
<rect x="1" y="16" width="2" height="4" fill="#3D3F59"/>
<rect x="1" y="16" width="2" height="4" fill="black" fill-opacity="0.2"/>
<rect x="1" y="20" width="2" height="4" fill="#E3AE97"/>
<rect x="13" y="20" width="2" height="4" fill="#E3AE97"/>
<rect x="1" y="3" width="4" height="2" fill="#E3AE97"/>
<rect x="12" y="3" width="3" height="2" fill="#E3AE97"/>
<rect x="15" y="10" width="1" height="3" fill="#E3AE97"/>
<rect x="7" y="16" width="2" height="2" fill="#E3AE97"/>
<rect x="7" y="16" width="2" height="2" fill="black" fill-opacity="0.1"/>
<rect x="6" y="16" width="1" height="1" fill="#E3AE97"/>
<rect x="6" y="16" width="1" height="1" fill="black" fill-opacity="0.1"/>
<rect x="9" y="16" width="1" height="1" fill="#E3AE97"/>
<rect x="9" y="16" width="1" height="1" fill="black" fill-opacity="0.1"/>
<rect y="10" width="1" height="3" fill="#E3AE97"/>
<rect x="11" y="2" width="3" height="2" fill="#E3AE97"/>
<rect x="2" y="2" width="8" height="2" fill="#E3AE97"/>
<rect x="8" y="4" width="2" height="1" fill="#E3AE97"/>
<rect x="7" y="2" width="2" height="2" fill="#E3AE97"/>
<rect x="8" y="2" width="3" height="2" fill="#E3AE97"/>
<rect x="4" y="3" width="4" height="1" fill="#E3AE97"/>
<rect x="3" y="1" width="10" height="1" fill="#E3AE97"/>
<rect x="4" width="8" height="1" fill="#E3AE97"/>
<rect x="5" y="16" width="1" height="2" fill="#3D3F59"/>
<rect x="10" y="16" width="1" height="2" fill="#3D3F59"/>
<rect x="7" y="18" width="2" height="1" fill="#3D3F59"/>
<rect x="5" y="17" width="1" height="1" fill="#3D3F59"/>
<rect x="7" y="19" width="2" height="2" fill="#3D3F59"/>
<rect x="5" y="18" width="2" height="1" fill="#3D3F59"/>
<rect x="6" y="17" width="1" height="1" fill="#3D3F59"/>
<rect x="9" y="17" width="1" height="1" fill="#3D3F59"/>
<rect x="5" y="18" width="1" height="1" fill="#3D3F59"/>
<rect x="9" y="18" width="2" height="1" fill="#3D3F59"/>
<rect x="10" y="17" width="1" height="1" fill="#3D3F59"/>
<rect x="5" y="19" width="2" height="1" fill="#3D3F59"/>
<rect x="5" y="19" width="1" height="1" fill="#3D3F59"/>
<rect x="10" y="18" width="1" height="1" fill="#3D3F59"/>
<rect x="3" y="16" width="1" height="1" fill="#3D3F59"/>
<rect x="11" y="17" width="1" height="1" fill="#3D3F59"/>
<rect x="11" y="18" width="1" height="1" fill="#3D3F59"/>
<rect x="11" y="19" width="1" height="1" fill="#3D3F59"/>
<rect x="10" y="20" width="1" height="1" fill="#3D3F59"/>
<rect x="9" y="20" width="1" height="1" fill="#3D3F59"/>
<rect x="8" y="21" width="1" height="1" fill="#3D3F59"/>
<rect x="7" y="22" width="1" height="1" fill="#3B3B3B"/>
<rect x="7" y="22" width="1" height="4" fill="#3D3F59"/>
<rect x="5" y="20" width="1" height="1" fill="#3D3F59"/>
<rect x="6" y="20" width="1" height="1" fill="#3D3F59"/>
<rect x="7" y="21" width="1" height="1" fill="#3D3F59"/>
<rect x="4" y="17" width="1" height="3" fill="#3D3F59"/>
<rect x="12" y="16" width="1" height="1" fill="#3D3F59"/>
<rect x="4" y="16" width="1" height="1" fill="#3D3F59"/>
<rect x="11" y="16" width="1" height="1" fill="#3D3F59"/>
<rect x="9" y="19" width="2" height="1" fill="#3D3F59"/>
<rect x="10" y="19" width="1" height="1" fill="#3D3F59"/>
<rect x="4" y="16" width="1" height="1" fill="#3D3F59"/>
<rect x="11" y="16" width="1" height="1" fill="#3D3F59"/>
<rect x="2" y="7" width="1" height="1" fill="#403F3F"/>
<rect x="3" y="7" width="1" height="1" fill="#403F3F"/>
<rect x="4" y="7" width="1" height="1" fill="#403F3F"/>
<rect x="5" y="7" width="1" height="1" fill="#403F3F"/>
<rect x="6" y="8" width="1" height="1" fill="#403F3F"/>
<rect x="14" y="8" width="1" height="3" fill="#403F3F"/>
<rect x="9" y="8" width="1" height="1" fill="#403F3F"/>
<rect x="9" y="9" width="1" height="1" fill="#403F3F"/>
<rect x="7" y="9" width="2" height="1" fill="#403F3F"/>
<rect x="10" y="11" width="4" height="1" fill="#403F3F"/>
<rect x="10" y="7" width="4" height="1" fill="#403F3F"/>
<rect x="9" y="10" width="1" height="1" fill="#403F3F"/>
<rect x="6" y="9" width="1" height="1" fill="#403F3F"/>
<rect x="6" y="10" width="1" height="1" fill="#403F3F"/>
<rect x="2" y="11" width="4" height="1" fill="#403F3F"/>
<rect x="1" y="10" width="1" height="1" fill="#403F3F"/>
<rect y="9" width="2" height="1" fill="#403F3F"/>
<rect x="14" y="9" width="2" height="1" fill="#403F3F"/>
<rect x="1" y="8" width="1" height="1" fill="#403F3F"/>
<rect x="10" y="22" width="2" height="1" fill="#3D3F59"/>
<rect x="3" y="29" width="4" height="1" fill="#5C5C5C"/>
<rect x="3" y="29" width="4" height="1" fill="black" fill-opacity="0.2"/>
<rect x="3" y="29" width="4" height="1" fill="black" fill-opacity="0.2"/>
<rect x="9" y="29" width="4" height="1" fill="#5C5C5C"/>
<rect x="9" y="29" width="4" height="1" fill="black" fill-opacity="0.2"/>
<rect x="9" y="29" width="4" height="1" fill="black" fill-opacity="0.2"/>
<rect opacity="0.83" x="6" y="13" width="1" height="1" fill="#4D4237"/>
<rect opacity="0.83" x="7" y="12" width="1" height="1" fill="#4D4237"/>
<rect opacity="0.83" x="8" y="12" width="1" height="1" fill="#4D4237"/>
<rect opacity="0.83" x="9" y="13" width="1" height="1" fill="#4D4237"/>
<rect opacity="0.83" x="7" y="15" width="1" height="1" fill="#4D4237"/>
<rect opacity="0.83" x="8" y="15" width="1" height="1" fill="#4D4237"/>
<rect opacity="0.83" x="9" y="14" width="1" height="1" fill="#4D4237"/>
<rect opacity="0.83" x="6" y="14" width="1" height="1" fill="#4D4237"/>
<rect x="3" y="5" width="2" height="1" fill="#614938"/>
<rect x="11" y="5" width="2" height="1" fill="#614938"/>
</svg>
